<svg id="Solid" xmlns="http://www.w3.org/2000/svg" viewBox="0 0 192 192"><defs><style>.cls-1{fill:#fff;}</style></defs><title>Climat</title><rect class="cls-1" x="-3.14" y="47" width="114.08" height="8" rx="4" transform="translate(-19.73 41.8) rotate(-36.3)"/><rect class="cls-1" x="134.1" y="-6.04" width="8" height="114.08" rx="4" transform="translate(15.25 132.12) rotate(-53.7)"/><path class="cls-1" d="M95.5,44.28l55.35,41.23V161c0,1.71-1.07,3-2,3H42.15c-.93,0-2-1.32-2-3V85.51L95.5,44.28m.79-8.7a3,3,0,0,0-.79.11,3,3,0,0,0-.79-.11,2.82,2.82,0,0,0-1.68.56L34.67,79.61l-2.52,1.88V161c0,6.07,4.5,11,10,11h106.7c5.5,0,10-5,10-11V81.49l-2.52-1.88L98,36.14a2.82,2.82,0,0,0-1.68-.56Z"/><path class="cls-1" d="M64,99l6,12.65.09.19.1.17c.1.2.2.41.29.63l0,.06,0,.13a7,7,0,1,1-13.1,0l0-.11,0-.08c.09-.22.19-.43.29-.63l.1-.17.09-.19L64,99m0-18.69L50.78,108.23a13.69,13.69,0,0,0-.64,1.34l-.2.43h0A15,15,0,1,0,78,110h0l-.2-.43a13.69,13.69,0,0,0-.64-1.34L64,80.31Z"/><circle class="cls-1" cx="96" cy="141.61" r="14"/><circle class="cls-1" cx="96" cy="63.7" r="7.3"/><rect class="cls-1" x="88.7" y="63.7" width="14.61" height="70.61"/><rect class="cls-1" x="103.3" y="85.61" width="4.87" height="4.87"/><rect class="cls-1" x="103.3" y="97.78" width="4.87" height="4.87"/><rect class="cls-1" x="103.3" y="73.43" width="4.87" height="4.87"/></svg>