<svg id="Solid" xmlns="http://www.w3.org/2000/svg" viewBox="0 0 192 192">
    <defs>
        <style>
            .cls-1,.cls-4{fill:#fff}.cls-4{stroke:#fff;stroke-miterlimit:10;stroke-width:8px}
        </style>
    </defs>
    <title>
        presence
    </title>
    <path class="cls-1" d="M79.47,95.18c-1.15,1.59-2.74,3-3.38,4.78-1.75,4.85-3.06,9.85-4.62,14.77-1.18,3.73-3.33,6.44-7.68,5-4-1.31-4.41-4.6-3.35-8.18,1.85-6.22,3.64-12.46,5.72-18.61,2-5.86,22.19-16.6,28.23-15.22,4.44,1,7.3,4.88,6.73,10.25q-1.43,13.4-3.64,26.71c-.68,4-.36,7.31,3.33,9.54,9.83,5.94,12.7,15,12.26,25.91-.2,4.79.69,9.62.85,14.45s-2.27,7.64-6.44,7.85-6.87-2.45-7.27-7.18c-.57-6.81-.8-13.65-1.62-20.42a11.56,11.56,0,0,0-3-6.32c-3.75-3.76-7.92-7.12-12-10.5-4.28-3.51-5.79-8-5.07-13.32Q79.73,105.35,81,96Z"/>
    <path class="cls-1" d="M77.77,129.24c12.19,8.51,12.15,8.49,7.64,21.69-1.88,5.5-3.52,11.08-5.37,16.59-1.31,3.91-4.21,5.52-8.17,4.7-4.14-.86-6.15-4-5.07-7.79C70.17,152.68,74,141.07,77.77,129.24Z"/>
    <path class="cls-1" d="M85.91,62.52a11.15,11.15,0,1,1,22.29-.3c.09,6.59-4.6,11.33-11.25,11.35A10.92,10.92,0,0,1,85.91,62.52Z"/>
    <path class="cls-1" d="M105.34,95c5.54,4.21,10.7,8.06,15.78,12,3,2.33,4.21,5.42,1.79,8.66s-5.71,2.76-8.79.6c-1.22-.86-2.37-1.81-3.53-2.74C102.19,106.78,102,106,105.34,95Z"/>
    <circle cx="96" cy="20" r="7" style="stroke-width:.25px;stroke:#fff;stroke-miterlimit:10;fill:#fff"/>
    <path d="M110.14,34.14a20,20,0,0,1-28.28,0" style="stroke-width:8px;fill:none;stroke:#fff;stroke-miterlimit:10"/>
    <path class="cls-4" d="M80.08,56.71a39.9,39.9,0,0,1-12.36-8.43"/>
    <path class="cls-4" d="M124.28,48.28a40.14,40.14,0,0,1-11.42,8"/>
    <path class="cls-4" d="M74.77,77.14A60.12,60.12,0,0,1,53.08,62.92"/>
    <path class="cls-4" d="M138.92,62.92a59.93,59.93,0,0,1-25,15.36"/>
</svg>
