<svg id="Solid" xmlns="http://www.w3.org/2000/svg" viewBox="0 0 192 192"><defs><style>.cls-1,.cls-2{fill:none;stroke:#fff;stroke-miterlimit:10;}.cls-1{stroke-width:8px;}.cls-2{stroke-width:4px;}</style></defs><title>Attributes</title><ellipse class="cls-1" cx="96" cy="96" rx="64" ry="20.5"/><path class="cls-1" d="M160,96V80l12-12V44c0-13.25-34-24-76-24S20,30.75,20,44V68L32,80V96"/><path class="cls-2" d="M124,124.56a40,40,0,0,1-56.29-.28"/><path class="cls-2" d="M131.36,131.36a50,50,0,0,1-70.72,0"/><path class="cls-2" d="M138.43,138.43a60,60,0,0,1-84.86,0"/><path class="cls-2" d="M145.5,145.5A70,70,0,0,1,46,145"/></svg>