<svg id="Solid" xmlns="http://www.w3.org/2000/svg" viewBox="0 0 192 192"><defs><style>.cls-1,.cls-3{fill:none;stroke:#00bfff;stroke-width:8px;}.cls-1{stroke-miterlimit:10;}.cls-2{fill:#00bfff;}.cls-3{stroke-linejoin:round;}</style></defs><title>views-hover</title><line class="cls-1" x1="172" y1="96" x2="171.01" y2="96"/><line class="cls-1" x1="119.62" y1="79" x2="119.62" y2="96"/><line class="cls-1" x1="147.1" y1="96" x2="119.62" y2="96"/><path class="cls-2" d="M115.94,40l47.2,55v53c0,2.48-1.49,4-2.3,4H30.31c-.82,0-2.31-1.52-2.31-4V44c0-2.48,1.49-4,2.31-4h85.63m3.68-8H30.31C24.64,32,20,37.4,20,44V148c0,6.6,4.64,12,10.31,12H160.84c5.66,0,10.3-5.4,10.3-12V92L119.62,32Z"/><polyline class="cls-3" points="171.14 96 119.62 96 119.62 36.85"/><polyline class="cls-1" points="147.1 92.47 147.1 139 71.53 139 71.53 124 40.61 124 40.61 53 95.57 53 95.57 79.17 119.62 79.17"/></svg>