<svg id="Solid" xmlns="http://www.w3.org/2000/svg" viewBox="0 0 192 192"><defs><style>.cls-1{fill:none;stroke:#fff;stroke-miterlimit:10;stroke-width:8px;}</style></defs><title>Attributes</title><ellipse class="cls-1" cx="96" cy="96" rx="64" ry="20.5"/><path class="cls-1" d="M160,96V80l12-12V44c0-13.25-34-24-76-24S20,30.75,20,44V68L32,80V96"/><path class="cls-1" d="M130.08,130.18a48.25,48.25,0,0,1-67.89-.34"/><path class="cls-1" d="M138.94,138.37a60.29,60.29,0,0,1-85.27,0"/><path class="cls-1" d="M147.47,146.9a72.37,72.37,0,0,1-102.33,0"/><path class="cls-1" d="M156,155.43a84.41,84.41,0,0,1-120-.62"/></svg>