<svg id="Solid" xmlns="http://www.w3.org/2000/svg" viewBox="0 0 192 192"><defs><style>.cls-1,.cls-2,.cls-4{fill:#00bfff;}.cls-1,.cls-2,.cls-3,.cls-4{stroke:#00bfff;stroke-miterlimit:10;}.cls-2{stroke-width:0.25px;}.cls-3{fill:none;}.cls-3,.cls-4{stroke-width:8px;}</style></defs><title>presence-hover</title><path class="cls-1" d="M79.47,98.45c-1.15,1.58-2.74,3-3.38,4.78-1.75,4.85-3.06,9.85-4.62,14.77-1.18,3.73-3.33,6.43-7.68,5-4-1.31-4.41-4.6-3.35-8.18,1.85-6.22,3.64-12.46,5.72-18.61,2-5.86,22.19-16.61,28.23-15.22,4.44,1,7.3,4.88,6.73,10.25-1,8.93-2.16,17.85-3.64,26.7-.68,4-.36,7.31,3.33,9.55,9.83,5.94,12.7,15,12.26,25.91-.2,4.79.69,9.62.85,14.45s-2.27,7.64-6.44,7.85-6.87-2.46-7.27-7.19c-.57-6.8-.8-13.64-1.62-20.41a11.56,11.56,0,0,0-3-6.32c-3.75-3.76-7.92-7.12-12-10.5-4.28-3.51-5.79-8-5.07-13.32q1.26-9.36,2.51-18.72Z"/><path class="cls-1" d="M77.77,132.51C90,141,89.92,141,85.41,154.2c-1.88,5.5-3.52,11.08-5.37,16.59-1.31,3.9-4.21,5.52-8.17,4.7-4.14-.86-6.15-4-5.07-7.79C70.17,156,74,144.34,77.77,132.51Z"/><path class="cls-1" d="M85.91,65.78a11.15,11.15,0,1,1,22.29-.29c.09,6.59-4.6,11.32-11.25,11.35A10.92,10.92,0,0,1,85.91,65.78Z"/><path class="cls-1" d="M105.34,98.28c5.54,4.21,10.7,8.06,15.78,12,3,2.33,4.21,5.41,1.79,8.66s-5.71,2.75-8.79.6c-1.22-.86-2.37-1.81-3.53-2.74C102.19,110.05,102,109.3,105.34,98.28Z"/><circle class="cls-2" cx="96" cy="23.27" r="7"/><path class="cls-3" d="M110.14,37.41a20,20,0,0,1-28.28,0"/><path class="cls-4" d="M80.08,60a40.07,40.07,0,0,1-12.36-8.43"/><path class="cls-4" d="M124.28,51.55a40.14,40.14,0,0,1-11.42,8"/><path class="cls-4" d="M74.77,80.41A60.12,60.12,0,0,1,53.08,66.19"/><path class="cls-4" d="M138.92,66.19a60,60,0,0,1-25,15.35"/></svg>